<?xml version="1.0" encoding="UTF-8" standalone="no"?><!DOCTYPE svg PUBLIC "-//W3C//DTD SVG 1.1//EN" "http://www.w3.org/Graphics/SVG/1.1/DTD/svg11.dtd"><svg width="100%" height="100%" viewBox="0 0 364 104" version="1.1" xmlns="http://www.w3.org/2000/svg" xmlns:xlink="http://www.w3.org/1999/xlink" xml:space="preserve" xmlns:serif="http://www.serif.com/" style="fill-rule:evenodd;clip-rule:evenodd;stroke-linecap:round;stroke-linejoin:round;stroke-miterlimit:1.5;"><rect id="logo" x="0" y="0" width="364" height="103.77" style="fill:none;"/><g><path d="M48.017,44.723c1.87,-1.87 2.973,-2.945 3.31,-3.226c0.841,-0.71 1.748,-1.262 2.721,-1.655c0.972,-0.392 1.935,-0.589 2.888,-0.589c1.609,0 2.992,0.468 4.152,1.403c1.159,0.935 1.935,2.29 2.328,4.067c1.926,-2.244 3.552,-3.717 4.88,-4.418c1.328,-0.701 2.693,-1.052 4.095,-1.052c1.365,0 2.576,0.351 3.632,1.052c1.057,0.701 1.894,1.847 2.511,3.436c0.411,1.085 0.617,2.786 0.617,5.105l0,11.051c0,1.608 0.121,2.711 0.364,3.31c0.187,0.411 0.533,0.762 1.038,1.051c0.505,0.29 1.328,0.435 2.468,0.435l0,1.01l-12.677,0l0,-1.01l0.533,0c1.103,0 1.963,-0.215 2.58,-0.645c0.43,-0.299 0.739,-0.776 0.926,-1.43c0.074,-0.318 0.112,-1.225 0.112,-2.721l0,-11.051c0,-2.094 -0.253,-3.572 -0.758,-4.432c-0.729,-1.197 -1.897,-1.795 -3.506,-1.795c-0.991,0 -1.986,0.248 -2.987,0.743c-1,0.496 -2.211,1.417 -3.632,2.763l-0.056,0.309l0.056,1.206l0,12.257c0,1.758 0.098,2.851 0.295,3.282c0.196,0.43 0.565,0.79 1.107,1.079c0.543,0.29 1.468,0.435 2.777,0.435l0,1.01l-12.986,0l0,-1.01c1.421,0 2.398,-0.168 2.931,-0.505c0.533,-0.336 0.902,-0.841 1.108,-1.514c0.093,-0.318 0.14,-1.244 0.14,-2.777l0,-11.051c0,-2.094 -0.309,-3.6 -0.926,-4.516c-0.822,-1.197 -1.972,-1.795 -3.45,-1.795c-1.009,0 -2.01,0.271 -3.001,0.813c-1.552,0.823 -2.748,1.749 -3.59,2.777l0,13.772c0,1.683 0.117,2.777 0.351,3.282c0.233,0.504 0.579,0.883 1.037,1.136c0.459,0.252 1.389,0.378 2.791,0.378l0,1.01l-12.706,0l0,-1.01c1.178,0 2.001,-0.126 2.469,-0.378c0.467,-0.253 0.822,-0.655 1.065,-1.207c0.244,-0.551 0.365,-1.622 0.365,-3.211l0,-9.817c0,-2.824 -0.084,-4.647 -0.252,-5.469c-0.131,-0.618 -0.337,-1.043 -0.617,-1.277c-0.281,-0.233 -0.664,-0.35 -1.15,-0.35c-0.524,0 -1.15,0.14 -1.88,0.42l-0.42,-1.009l7.741,-3.142l1.206,0l0,5.47Z" style="fill:#ff7f29;fill-rule:nonzero;"/><path d="M83.611,40.011l11.976,0l0,1.037l-0.589,0c-0.841,0 -1.472,0.183 -1.893,0.547c-0.421,0.365 -0.631,0.818 -0.631,1.361c0,0.729 0.308,1.739 0.925,3.029l6.255,12.958l5.75,-14.192c0.318,-0.767 0.477,-1.524 0.477,-2.272c0,-0.337 -0.066,-0.589 -0.196,-0.757c-0.15,-0.206 -0.384,-0.37 -0.702,-0.491c-0.317,-0.122 -0.878,-0.183 -1.683,-0.183l0,-1.037l8.359,0l0,1.037c-0.692,0.075 -1.225,0.225 -1.599,0.449c-0.374,0.225 -0.785,0.645 -1.234,1.262c-0.168,0.262 -0.486,0.982 -0.954,2.16l-10.462,25.636c-1.009,2.487 -2.332,4.366 -3.969,5.638c-1.636,1.272 -3.211,1.907 -4.726,1.907c-1.103,0 -2.01,-0.318 -2.72,-0.953c-0.711,-0.636 -1.066,-1.365 -1.066,-2.188c0,-0.785 0.257,-1.417 0.771,-1.893c0.514,-0.477 1.22,-0.716 2.118,-0.716c0.617,0 1.458,0.206 2.524,0.617c0.748,0.281 1.216,0.421 1.403,0.421c0.561,0 1.173,-0.29 1.837,-0.869c0.664,-0.58 1.332,-1.702 2.005,-3.366l1.823,-4.46l-9.228,-19.381c-0.28,-0.58 -0.729,-1.3 -1.346,-2.16c-0.467,-0.654 -0.851,-1.094 -1.15,-1.318c-0.43,-0.299 -1.122,-0.561 -2.075,-0.786l0,-1.037Z" style="fill:#ff7f29;fill-rule:nonzero;"/><path d="M124,29.745l0,15.034l8.359,0c2.169,0 3.618,-0.327 4.347,-0.982c0.972,-0.86 1.515,-2.375 1.627,-4.544l1.038,0l0,13.239l-1.038,0c-0.262,-1.851 -0.524,-3.038 -0.785,-3.562c-0.337,-0.655 -0.889,-1.169 -1.655,-1.543c-0.767,-0.374 -1.945,-0.561 -3.534,-0.561l-8.359,0l0,12.538c0,1.683 0.075,2.707 0.225,3.071c0.149,0.365 0.411,0.655 0.785,0.87c0.374,0.215 1.084,0.322 2.132,0.322l6.451,0c2.15,0 3.711,-0.149 4.684,-0.448c0.972,-0.3 1.907,-0.889 2.805,-1.768c1.159,-1.159 2.346,-2.907 3.562,-5.245l1.122,0l-3.282,9.537l-29.31,0l0,-1.038l1.346,0c0.897,0 1.748,-0.215 2.552,-0.645c0.599,-0.299 1.005,-0.748 1.22,-1.346c0.215,-0.599 0.323,-1.823 0.323,-3.675l0,-24.71c0,-2.412 -0.243,-3.899 -0.729,-4.46c-0.674,-0.748 -1.795,-1.122 -3.366,-1.122l-1.346,0l0,-1.038l29.31,0l0.421,8.331l-1.094,0c-0.393,-2.001 -0.827,-3.376 -1.304,-4.123c-0.477,-0.748 -1.183,-1.319 -2.118,-1.711c-0.748,-0.281 -2.066,-0.421 -3.955,-0.421l-10.434,0Z" style="fill-rule:nonzero;"/><path d="M147.841,40.011l12.089,0l0,1.037c-0.766,0 -1.304,0.131 -1.613,0.393c-0.308,0.262 -0.462,0.608 -0.462,1.038c0,0.449 0.327,1.14 0.981,2.075c0.206,0.3 0.515,0.767 0.926,1.403l1.823,2.917l2.104,-2.917c1.346,-1.851 2.019,-3.02 2.019,-3.506c0,-0.393 -0.159,-0.725 -0.477,-0.996c-0.318,-0.271 -0.832,-0.407 -1.542,-0.407l0,-1.037l8.695,0l0,1.037c-0.917,0.056 -1.711,0.309 -2.384,0.758c-0.917,0.635 -2.17,2.019 -3.759,4.151l-3.506,4.684l6.395,9.2c1.571,2.262 2.693,3.623 3.366,4.081c0.673,0.458 1.543,0.715 2.608,0.771l0,1.01l-12.117,0l0,-1.01c0.842,0 1.496,-0.187 1.964,-0.561c0.355,-0.262 0.533,-0.608 0.533,-1.038c0,-0.43 -0.599,-1.514 -1.795,-3.253l-3.759,-5.498l-4.123,5.498c-1.271,1.701 -1.907,2.711 -1.907,3.029c0,0.449 0.21,0.855 0.631,1.22c0.421,0.365 1.052,0.566 1.893,0.603l0,1.01l-8.386,0l0,-1.01c0.673,-0.093 1.262,-0.327 1.767,-0.701c0.71,-0.542 1.907,-1.926 3.59,-4.151l5.385,-7.153l-4.88,-7.068c-1.384,-2.019 -2.454,-3.286 -3.212,-3.8c-0.757,-0.515 -1.706,-0.772 -2.847,-0.772l0,-1.037Z" style="fill-rule:nonzero;"/><path d="M175.749,42.563l7.91,-3.198l1.066,0l0,6.003c1.328,-2.263 2.66,-3.847 3.997,-4.754c1.337,-0.907 2.744,-1.361 4.221,-1.361c2.581,0 4.731,1.01 6.451,3.029c2.113,2.469 3.17,5.685 3.17,9.649c0,4.432 -1.272,8.097 -3.815,10.995c-2.094,2.375 -4.731,3.562 -7.909,3.562c-1.384,0 -2.581,-0.196 -3.591,-0.589c-0.748,-0.28 -1.589,-0.841 -2.524,-1.683l0,7.826c0,1.758 0.107,2.875 0.323,3.352c0.215,0.476 0.589,0.855 1.121,1.136c0.533,0.28 1.501,0.42 2.903,0.42l0,1.038l-13.463,0l0,-1.038l0.701,0c1.029,0.019 1.908,-0.177 2.637,-0.589c0.355,-0.205 0.631,-0.537 0.827,-0.995c0.197,-0.459 0.295,-1.623 0.295,-3.492l0,-24.29c0,-1.665 -0.075,-2.721 -0.224,-3.17c-0.15,-0.449 -0.388,-0.785 -0.716,-1.01c-0.327,-0.224 -0.771,-0.336 -1.332,-0.336c-0.449,0 -1.019,0.131 -1.711,0.393l-0.337,-0.898Zm8.976,4.46l0,9.592c0,2.076 0.084,3.441 0.252,4.095c0.262,1.085 0.903,2.038 1.922,2.861c1.019,0.823 2.304,1.234 3.856,1.234c1.87,0 3.385,-0.729 4.544,-2.187c1.515,-1.908 2.272,-4.591 2.272,-8.05c0,-3.927 -0.86,-6.947 -2.58,-9.06c-1.197,-1.458 -2.618,-2.188 -4.264,-2.188c-0.897,0 -1.785,0.225 -2.664,0.673c-0.673,0.337 -1.786,1.347 -3.338,3.03Z" style="fill-rule:nonzero;"/><path d="M210.642,49.687c-0.019,3.815 0.907,6.807 2.776,8.976c1.87,2.169 4.068,3.253 6.592,3.253c1.683,0 3.146,-0.462 4.389,-1.388c1.244,-0.926 2.286,-2.51 3.128,-4.754l0.869,0.561c-0.392,2.561 -1.533,4.894 -3.422,6.998c-1.888,2.103 -4.254,3.155 -7.096,3.155c-3.085,0 -5.726,-1.201 -7.923,-3.604c-2.198,-2.403 -3.296,-5.633 -3.296,-9.691c0,-4.394 1.126,-7.821 3.38,-10.279c2.253,-2.459 5.081,-3.689 8.484,-3.689c2.88,0 5.245,0.949 7.097,2.847c1.851,1.898 2.776,4.436 2.776,7.615l-17.754,0Zm0,-1.627l11.892,0c-0.093,-1.645 -0.29,-2.804 -0.589,-3.478c-0.467,-1.047 -1.164,-1.869 -2.089,-2.468c-0.926,-0.598 -1.894,-0.897 -2.903,-0.897c-1.552,0 -2.941,0.603 -4.166,1.809c-1.224,1.206 -1.94,2.884 -2.145,5.034Z" style="fill-rule:nonzero;"/><path d="M239.307,44.695c3.011,-3.628 5.881,-5.442 8.611,-5.442c1.402,0 2.609,0.351 3.618,1.052c1.01,0.701 1.814,1.856 2.412,3.464c0.412,1.122 0.617,2.842 0.617,5.161l0,10.967c0,1.627 0.131,2.73 0.393,3.31c0.206,0.467 0.538,0.832 0.996,1.093c0.458,0.262 1.304,0.393 2.538,0.393l0,1.01l-12.706,0l0,-1.01l0.533,0c1.197,0 2.034,-0.182 2.511,-0.547c0.476,-0.364 0.808,-0.902 0.995,-1.613c0.075,-0.28 0.112,-1.159 0.112,-2.636l0,-10.518c0,-2.338 -0.303,-4.035 -0.911,-5.091c-0.608,-1.057 -1.632,-1.585 -3.071,-1.585c-2.226,0 -4.441,1.216 -6.648,3.647l0,13.547c0,1.739 0.103,2.814 0.309,3.225c0.261,0.543 0.621,0.94 1.08,1.193c0.458,0.252 1.388,0.378 2.79,0.378l0,1.01l-12.706,0l0,-1.01l0.561,0c1.309,0 2.193,-0.332 2.651,-0.996c0.458,-0.663 0.687,-1.93 0.687,-3.8l0,-9.537c0,-3.085 -0.07,-4.964 -0.21,-5.637c-0.14,-0.673 -0.355,-1.132 -0.645,-1.375c-0.29,-0.243 -0.678,-0.364 -1.164,-0.364c-0.524,0 -1.15,0.14 -1.88,0.42l-0.42,-1.009l7.741,-3.142l1.206,0l0,5.442Z" style="fill-rule:nonzero;"/><path d="M277.144,39.253l0,8.751l-0.925,0c-0.711,-2.748 -1.622,-4.618 -2.735,-5.609c-1.112,-0.991 -2.529,-1.487 -4.249,-1.487c-1.309,0 -2.366,0.346 -3.17,1.038c-0.804,0.692 -1.206,1.458 -1.206,2.3c0,1.047 0.299,1.945 0.898,2.693c0.579,0.766 1.757,1.58 3.534,2.44l4.095,1.991c3.796,1.851 5.694,4.292 5.694,7.321c0,2.337 -0.884,4.221 -2.651,5.652c-1.767,1.43 -3.744,2.145 -5.932,2.145c-1.571,0 -3.366,-0.28 -5.385,-0.841c-0.617,-0.187 -1.122,-0.281 -1.515,-0.281c-0.43,0 -0.767,0.243 -1.01,0.73l-0.925,0l0,-9.172l0.925,0c0.524,2.618 1.524,4.59 3.002,5.918c1.477,1.328 3.132,1.991 4.964,1.991c1.29,0 2.342,-0.378 3.156,-1.136c0.813,-0.757 1.22,-1.668 1.22,-2.734c0,-1.291 -0.454,-2.375 -1.361,-3.254c-0.907,-0.879 -2.716,-1.991 -5.427,-3.338c-2.711,-1.346 -4.488,-2.561 -5.329,-3.646c-0.842,-1.066 -1.262,-2.412 -1.262,-4.039c0,-2.113 0.724,-3.88 2.173,-5.301c1.449,-1.421 3.324,-2.132 5.624,-2.132c1.01,0 2.235,0.215 3.674,0.645c0.954,0.281 1.59,0.421 1.908,0.421c0.299,0 0.533,-0.065 0.701,-0.196c0.168,-0.131 0.364,-0.421 0.589,-0.87l0.925,0Z" style="fill-rule:nonzero;"/><path d="M287.214,49.687c-0.019,3.815 0.907,6.807 2.777,8.976c1.869,2.169 4.067,3.253 6.591,3.253c1.683,0 3.146,-0.462 4.39,-1.388c1.243,-0.926 2.285,-2.51 3.127,-4.754l0.869,0.561c-0.392,2.561 -1.533,4.894 -3.421,6.998c-1.889,2.103 -4.254,3.155 -7.097,3.155c-3.085,0 -5.726,-1.201 -7.923,-3.604c-2.197,-2.403 -3.296,-5.633 -3.296,-9.691c0,-4.394 1.127,-7.821 3.38,-10.279c2.253,-2.459 5.081,-3.689 8.484,-3.689c2.88,0 5.245,0.949 7.097,2.847c1.851,1.898 2.776,4.436 2.776,7.615l-17.754,0Zm0,-1.627l11.892,0c-0.093,-1.645 -0.289,-2.804 -0.589,-3.478c-0.467,-1.047 -1.164,-1.869 -2.089,-2.468c-0.926,-0.598 -1.894,-0.897 -2.903,-0.897c-1.552,0 -2.941,0.603 -4.165,1.809c-1.225,1.206 -1.94,2.884 -2.146,5.034Z" style="fill-rule:nonzero;"/><path d="M324.995,39.253l0,8.751l-0.926,0c-0.71,-2.748 -1.622,-4.618 -2.734,-5.609c-1.113,-0.991 -2.529,-1.487 -4.25,-1.487c-1.309,0 -2.365,0.346 -3.169,1.038c-0.804,0.692 -1.206,1.458 -1.206,2.3c0,1.047 0.299,1.945 0.897,2.693c0.58,0.766 1.758,1.58 3.534,2.44l4.096,1.991c3.795,1.851 5.693,4.292 5.693,7.321c0,2.337 -0.883,4.221 -2.65,5.652c-1.767,1.43 -3.745,2.145 -5.932,2.145c-1.571,0 -3.366,-0.28 -5.386,-0.841c-0.617,-0.187 -1.122,-0.281 -1.514,-0.281c-0.43,0 -0.767,0.243 -1.01,0.73l-0.926,0l0,-9.172l0.926,0c0.523,2.618 1.524,4.59 3.001,5.918c1.477,1.328 3.132,1.991 4.965,1.991c1.29,0 2.342,-0.378 3.155,-1.136c0.813,-0.757 1.22,-1.668 1.22,-2.734c0,-1.291 -0.453,-2.375 -1.36,-3.254c-0.907,-0.879 -2.716,-1.991 -5.428,-3.338c-2.711,-1.346 -4.487,-2.561 -5.329,-3.646c-0.841,-1.066 -1.262,-2.412 -1.262,-4.039c0,-2.113 0.725,-3.88 2.174,-5.301c1.449,-1.421 3.324,-2.132 5.624,-2.132c1.009,0 2.234,0.215 3.674,0.645c0.954,0.281 1.589,0.421 1.907,0.421c0.299,0 0.533,-0.065 0.701,-0.196c0.169,-0.131 0.365,-0.421 0.589,-0.87l0.926,0Z" style="fill-rule:nonzero;"/></g><path d="M361.312,27.287c0,-13.577 -11.022,-24.599 -24.599,-24.599l-309.426,0c-13.577,0 -24.599,11.022 -24.599,24.599l0,49.196c0,13.576 11.022,24.598 24.599,24.598l309.426,0c13.577,0 24.599,-11.022 24.599,-24.598l0,-49.196Z" style="fill:none;stroke:#ff7f29;stroke-width:5px;"/></svg>